<svg xmlns="http://www.w3.org/2000/svg" enable-background="new 0 0 65 65" viewBox="0 0 65 65"><path d="M32.5,64.25c13.28535,0,24.26172-10.80407,24.26172-24.26123c0-6.48633-2.52734-12.58545-7.11816-17.17578
		c-2.07855-2.06482-4.55902-3.76111-7.21246-4.95074c2.11853-4.02723,2.21051-3.99285,2.21051-4.32074
		c0-0.00488-0.00073-0.00989-0.00073-0.01477c-0.00006-0.00269-0.00031-0.00513-0.00037-0.00781
		C44.62842,7.48663,39.74579,0.75,33.2124,0.75h-1.42432c-6.53394,0-11.41681,6.73779-11.42816,12.77045
		c0,0.00177-0.00018,0.0033-0.00024,0.00507c0,0.00531-0.00079,0.01068-0.00079,0.01599c0,0.33222,0.13684,0.37877,2.21564,4.33038
		C13.84283,21.77771,8.23828,30.35809,8.23828,39.98877C8.23828,53.3667,19.12207,64.25,32.5,64.25z M14.96204,54.48132
		l3.52533-3.52533c1.88177,1.08881,4.05823,1.72223,6.38422,1.72223c3.12775,0,5.99384-1.13116,8.2196-3.00116l4.48761,4.48724
		c-2.32399,2.13828-3.66257,5.2301-3.45465,8.52075C33.58673,62.72369,33.04956,62.75,32.5,62.75
		C25.45093,62.75,19.14044,59.52869,14.96204,54.48132z M23.78467,18.96533h17.43115
		c2.38837,0.98553,4.62561,2.43524,6.56738,4.18848c-3.26013,1.75879-5.37262,5.06897-5.58002,8.80524l-6.32172,1.42059
		c-2.23096-3.76569-6.32458-6.30347-11.00989-6.30347c-1.73578,0-3.39032,0.35065-4.90106,0.97931l-3.10883-4.61871
		C18.8382,21.57617,21.16711,20.04785,23.78467,18.96533z M24.87158,28.57617c6.23145,0,11.30078,5.06934,11.30078,11.30078
		s-5.06934,11.30127-11.30078,11.30127S13.5708,46.1084,13.5708,39.87695S18.64014,28.57617,24.87158,28.57617z M35.61804,62.52875
		c-0.28951-5.244,3.91764-9.70648,9.20813-9.70648c1.87726,0,3.70557,0.57648,5.22687,1.63287
		C46.43695,58.84845,41.24951,61.75024,35.61804,62.52875z M50.9624,53.26349c-1.78284-1.25433-3.93115-1.94122-6.13623-1.94122
		c-2.25409,0-4.34521,0.70233-6.07355,1.89478l-4.57617-4.57581c2.16083-2.29297,3.49591-5.37238,3.49591-8.76428
		c0-1.82074-0.38794-3.55054-1.07611-5.12012l5.63135-1.2655c0.47235,5.48041,5.07745,9.79773,10.67767,9.79773
		c0.73315,0,1.44342-0.07867,2.1286-0.21906C54.53693,46.75403,53.14355,50.24225,50.9624,53.26349z M55.26172,39.98877
		c0,0.52966-0.02264,1.01251-0.05664,1.48199c-0.729,0.19531-1.4928,0.3183-2.2998,0.3183
		c-5.08691,0-9.22461-4.13818-9.22461-9.22461c0-3.58899,2.05627-6.7793,5.25989-8.297
		C53.01056,28.52637,55.26172,34.08093,55.26172,39.98877z M31.78809,2.25h1.42432c5.32629,0,9.50549,5.50586,9.89117,10.5415
		H21.89691C22.28259,7.75586,26.46179,2.25,31.78809,2.25z M42.64014,14.2915l-1.69727,3.17383H24.05762l-1.69727-3.17383H42.64014z
		 M15.78607,24.52502l2.82544,4.19775c-3.89813,2.19659-6.54071,6.36969-6.54071,11.15417
		c0,4.18475,2.02747,7.89545,5.14178,10.23273l-3.172,3.172c-2.70313-3.74298-4.30231-8.33344-4.30231-13.29291
		C9.73828,34.10437,11.9707,28.63806,15.78607,24.52502z"/><path d="M15.14551 29.35352c.41406 0 .75-.33594.75-.75v-.0708c0-.41406-.33594-.71436-.75-.71436s-.75.37109-.75.78516S14.73145 29.35352 15.14551 29.35352zM20.84766 25.104c.41406 0 .75-.33594.75-.75v-.0708c0-.41406-.33594-.71484-.75-.71484s-.75.37158-.75.78564S20.43359 25.104 20.84766 25.104zM38.39063 29.81201c.41406 0 .75-.33594.75-.75v-.0708c0-.41406-.33594-.71484-.75-.71484s-.75.37158-.75.78564S37.97656 29.81201 38.39063 29.81201zM39.2251 11.13037c.41406 0 .75-.33594.75-.75v-.0708c0-.41406-.33594-.71484-.75-.71484s-.75.37158-.75.78564S38.81104 11.13037 39.2251 11.13037zM40.2627 36.64941c-.41406 0-.75.37109-.75.78516s.33594.75.75.75.75-.33594.75-.75v-.0708C41.0127 36.94971 40.67676 36.64941 40.2627 36.64941zM50.31836 46.55273c-.41406 0-.75.37109-.75.78516s.33594.75.75.75.75-.33594.75-.75v-.07031C51.06836 46.85352 50.73242 46.55273 50.31836 46.55273zM39.2251 47.90723c-.41406 0-.75.37109-.75.78516s.33594.75.75.75.75-.33594.75-.75v-.07031C39.9751 48.20801 39.63916 47.90723 39.2251 47.90723zM33.13232 52.69043c-.41406 0-.75.37158-.75.78564s.33594.75.75.75.75-.33594.75-.75v-.0708C33.88232 52.99121 33.54639 52.69043 33.13232 52.69043zM19.10645 53.4248c-.41406 0-.75.37158-.75.78564s.33594.75.75.75.75-.33594.75-.75v-.0708C19.85645 53.72559 19.52051 53.4248 19.10645 53.4248zM14.73633 50.05566v-.0708c0-.41406-.33594-.71436-.75-.71436s-.75.37109-.75.78516.33594.75.75.75S14.73633 50.46973 14.73633 50.05566zM30.0625 11.96631c2.12256 0 3.84912-1.72705 3.84912-3.84961s-1.72656-3.84912-3.84912-3.84912-3.84912 1.72656-3.84912 3.84912S27.93994 11.96631 30.0625 11.96631zM30.0625 5.76758c1.29541 0 2.34912 1.05371 2.34912 2.34912s-1.05371 2.34961-2.34912 2.34961-2.34912-1.0542-2.34912-2.34961S28.76709 5.76758 30.0625 5.76758z"/></svg>